<?xml version="1.0" standalone="no"?><!DOCTYPE svg PUBLIC "-//W3C//DTD SVG 1.1//EN" "http://www.w3.org/Graphics/SVG/1.1/DTD/svg11.dtd"><svg class="icon" width="16px" height="16.00px" viewBox="0 0 1024 1024" version="1.1" xmlns="http://www.w3.org/2000/svg"><path fill="#000000" d="M375.466667 921.6H136.533333c-37.546667 0-68.266667-30.72-68.266666-68.266667V136.533333c0-37.546667 30.72-68.266667 68.266666-68.266666h614.4c37.546667 0 68.266667 30.72 68.266667 68.266666v170.666667c0 20.48-13.653333 34.133333-34.133333 34.133333s-34.133333-13.653333-34.133334-34.133333V136.533333H136.533333v716.8h238.933334c20.48 0 34.133333 13.653333 34.133333 34.133334s-13.653333 34.133333-34.133333 34.133333z"  /><path fill="#000000" d="M648.533333 887.466667c-64.853333 0-122.88-23.893333-167.253333-71.68S409.6 713.386667 409.6 648.533333s23.893333-122.88 71.68-167.253333 102.4-71.68 167.253333-71.68 122.88 23.893333 167.253334 71.68c44.373333 44.373333 71.68 105.813333 71.68 167.253333 0 64.853333-23.893333 122.88-71.68 167.253334S713.386667 887.466667 648.533333 887.466667z m0-409.6c-44.373333 0-88.746667 17.066667-119.466666 51.2S477.866667 604.16 477.866667 648.533333s17.066667 88.746667 51.2 119.466667S604.16 819.2 648.533333 819.2s88.746667-17.066667 119.466667-51.2S819.2 692.906667 819.2 648.533333s-17.066667-88.746667-51.2-119.466666c-30.72-34.133333-75.093333-51.2-119.466667-51.2z"  /><path fill="#000000" d="M921.6 938.666667c-10.24 0-17.066667-3.413333-23.893333-10.24l-119.466667-119.466667c-13.653333-13.653333-13.653333-34.133333 0-47.786667s34.133333-13.653333 47.786667 0l119.466666 119.466667c13.653333 13.653333 13.653333 34.133333 0 47.786667-6.826667 6.826667-13.653333 10.24-23.893333 10.24zM546.133333 341.333333H238.933333c-20.48 0-34.133333-13.653333-34.133333-34.133333s13.653333-34.133333 34.133333-34.133333h307.2c20.48 0 34.133333 13.653333 34.133334 34.133333s-13.653333 34.133333-34.133334 34.133333zM341.333333 512H238.933333c-20.48 0-34.133333-13.653333-34.133333-34.133333s13.653333-34.133333 34.133333-34.133334h102.4c20.48 0 34.133333 13.653333 34.133334 34.133334s-13.653333 34.133333-34.133334 34.133333z"  /><path fill="#000000" d="M273.066667 682.666667H238.933333c-20.48 0-34.133333-13.653333-34.133333-34.133334s13.653333-34.133333 34.133333-34.133333h34.133334c20.48 0 34.133333 13.653333 34.133333 34.133333s-13.653333 34.133333-34.133333 34.133334z"  /></svg>