<?xml version="1.0" standalone="no"?><!DOCTYPE svg PUBLIC "-//W3C//DTD SVG 1.1//EN" "http://www.w3.org/Graphics/SVG/1.1/DTD/svg11.dtd"><svg class="icon" width="16px" height="16.00px" viewBox="0 0 1024 1024" version="1.1" xmlns="http://www.w3.org/2000/svg"><path fill="#000000" d="M921.6 307.2h-102.4V238.933333c0-37.546667-30.72-68.266667-68.266667-68.266666h-262.826666l-10.24-10.24-3.413334-3.413334c-10.24-13.653333-27.306667-20.48-44.373333-20.48H102.4c-37.546667 0-68.266667 30.72-68.266667 68.266667v614.4c0 37.546667 30.72 68.266667 68.266667 68.266667h819.2c37.546667 0 68.266667-30.72 68.266667-68.266667V375.466667c0-37.546667-30.72-68.266667-68.266667-68.266667z m-170.666667-68.266667v68.266667h-153.6l-54.613333-68.266667H750.933333zM102.4 819.2V204.8h327.68l122.88 157.013333c6.826667 6.826667 17.066667 13.653333 27.306667 13.653334h341.333333v443.733333H102.4z" /></svg>