<?xml version="1.0" standalone="no"?><!DOCTYPE svg PUBLIC "-//W3C//DTD SVG 1.1//EN" "http://www.w3.org/Graphics/SVG/1.1/DTD/svg11.dtd"><svg class="icon" width="16px" height="16.00px" viewBox="0 0 1024 1024" version="1.1" xmlns="http://www.w3.org/2000/svg"><path fill="#000000" d="M590.506667 727.04L546.133333 771.413333V546.133333c0-20.48-13.653333-34.133333-34.133333-34.133333s-34.133333 13.653333-34.133333 34.133333v225.28l-44.373334-44.373333c-13.653333-13.653333-34.133333-13.653333-47.786666 0s-13.653333 34.133333 0 47.786667l102.4 102.4c6.826667 6.826667 17.066667 10.24 23.893333 10.24s17.066667-3.413333 23.893333-10.24l102.4-102.4c13.653333-13.653333 13.653333-34.133333 0-47.786667s-34.133333-13.653333-47.786666 0z"  /><path fill="#000000" d="M781.653333 385.706667C764.586667 245.76 634.88 136.533333 477.866667 136.533333c-163.84 0-300.373333 119.466667-307.2 266.24-81.92 37.546667-136.533333 112.64-136.533334 197.973334C34.133333 720.213333 139.946667 819.2 273.066667 819.2c20.48 0 34.133333-13.653333 34.133333-34.133333s-13.653333-34.133333-34.133333-34.133334c-95.573333 0-170.666667-68.266667-170.666667-150.186666 0-61.44 44.373333-119.466667 112.64-139.946667 13.653333-6.826667 23.893333-17.066667 23.893333-34.133333v-10.24C238.933333 300.373333 344.746667 204.8 477.866667 204.8s238.933333 95.573333 238.933333 211.626667c0 20.48 13.653333 34.133333 34.133333 34.133333 95.573333 0 170.666667 68.266667 170.666667 150.186667 0 81.92-75.093333 150.186667-170.666667 150.186666-20.48 0-34.133333 13.653333-34.133333 34.133334s13.653333 34.133333 34.133333 34.133333c133.12 0 238.933333-98.986667 238.933334-218.453333 0-109.226667-88.746667-201.386667-208.213334-215.04z"  /></svg>