<?xml version="1.0" standalone="no"?><!DOCTYPE svg PUBLIC "-//W3C//DTD SVG 1.1//EN" "http://www.w3.org/Graphics/SVG/1.1/DTD/svg11.dtd"><svg class="icon" width="16px" height="16.00px" viewBox="0 0 1024 1024" version="1.1" xmlns="http://www.w3.org/2000/svg"><path fill="#000000" d="M976.213333 450.56l-443.733333-375.466667c-13.653333-10.24-30.72-10.24-44.373333 0l-443.733334 375.466667c-13.653333 13.653333-17.066667 34.133333-3.413333 47.786667 13.653333 13.653333 34.133333 17.066667 47.786667 3.413333l13.653333-6.826667V921.6c0 20.48 13.653333 34.133333 34.133333 34.133333h750.933334c20.48 0 34.133333-13.653333 34.133333-34.133333V494.933333l13.653333 10.24c6.826667 6.826667 13.653333 6.826667 20.48 6.826667 10.24 0 20.48-3.413333 27.306667-13.653333 10.24-13.653333 10.24-34.133333-6.826667-47.786667zM580.266667 887.466667h-136.533334v-136.533334h136.533334v136.533334z m273.066666-443.733334v443.733334h-204.8v-170.666667c0-20.48-13.653333-34.133333-34.133333-34.133333h-204.8c-20.48 0-34.133333 13.653333-34.133333 34.133333v170.666667H170.666667V443.733333v-6.826666l341.333333-290.133334 341.333333 290.133334v6.826666z" /></svg>