<?xml version="1.0" standalone="no"?><!DOCTYPE svg PUBLIC "-//W3C//DTD SVG 1.1//EN" "http://www.w3.org/Graphics/SVG/1.1/DTD/svg11.dtd"><svg class="icon" width="16px" height="16.00px" viewBox="0 0 1024 1024" version="1.1" xmlns="http://www.w3.org/2000/svg"><path fill="#000000" d="M853.333333 102.4h-102.4c0-37.546667-30.72-68.266667-68.266666-68.266667H341.333333c-37.546667 0-68.266667 30.72-68.266666 68.266667H170.666667c-37.546667 0-68.266667 30.72-68.266667 68.266667v750.933333c0 37.546667 30.72 68.266667 68.266667 68.266667h682.666666c37.546667 0 68.266667-30.72 68.266667-68.266667V170.666667c0-37.546667-30.72-68.266667-68.266667-68.266667zM341.333333 102.4h341.333334v68.266667H341.333333V102.4z m512 819.2H170.666667V170.666667h102.4c0 37.546667 30.72 68.266667 68.266666 68.266666h341.333334c37.546667 0 68.266667-30.72 68.266666-68.266666h102.4v750.933333zM682.666667 409.6H341.333333c-17.066667 0-34.133333-13.653333-34.133333-34.133333 0-17.066667 13.653333-34.133333 34.133333-34.133334h341.333334c17.066667 0 34.133333 13.653333 34.133333 34.133334s-13.653333 34.133333-34.133333 34.133333zM682.666667 614.4H341.333333c-17.066667 0-34.133333-13.653333-34.133333-34.133333 0-17.066667 13.653333-34.133333 34.133333-34.133334h341.333334c17.066667 0 34.133333 13.653333 34.133333 34.133334s-13.653333 34.133333-34.133333 34.133333zM682.666667 819.2H341.333333c-17.066667 0-34.133333-13.653333-34.133333-34.133333 0-17.066667 13.653333-34.133333 34.133333-34.133334h341.333334c17.066667 0 34.133333 13.653333 34.133333 34.133334s-13.653333 34.133333-34.133333 34.133333z" /></svg>