<?xml version="1.0" standalone="no"?><!DOCTYPE svg PUBLIC "-//W3C//DTD SVG 1.1//EN" "http://www.w3.org/Graphics/SVG/1.1/DTD/svg11.dtd"><svg class="icon" width="16px" height="16.00px" viewBox="0 0 1024 1024" version="1.1" xmlns="http://www.w3.org/2000/svg"><path fill="#000000" d="M918.186667 361.813333L853.333333 341.333333V102.4c0-37.546667-30.72-68.266667-68.266666-68.266667H238.933333c-37.546667 0-68.266667 30.72-68.266666 68.266667v238.933333l-64.853334 20.48C61.44 375.466667 34.133333 413.013333 34.133333 460.8V887.466667c0 58.026667 44.373333 102.4 102.4 102.4h750.933334c58.026667 0 102.4-44.373333 102.4-102.4V460.8c0-44.373333-30.72-85.333333-71.68-98.986667z m-20.48 64.853334c3.413333 0 3.413333 3.413333 6.826666 3.413333l-51.2 23.893333v-40.96l44.373334 13.653334zM785.066667 102.4v382.293333l-259.413334 119.466667c-10.24 3.413333-20.48 3.413333-27.306666 0L238.933333 484.693333V102.4h546.133334zM170.666667 413.013333v40.96l-51.2-23.893333c3.413333 0 3.413333-3.413333 6.826666-3.413333l44.373334-13.653334zM887.466667 921.6H136.533333c-20.48 0-34.133333-13.653333-34.133333-34.133333V498.346667l365.226667 170.666666c13.653333 6.826667 27.306667 10.24 44.373333 10.24s30.72-3.413333 44.373333-10.24l365.226667-170.666666V887.466667c0 20.48-13.653333 34.133333-34.133333 34.133333z"  /><path fill="#000000" d="M341.333333 273.066667h341.333334c20.48 0 34.133333-13.653333 34.133333-34.133334s-13.653333-34.133333-34.133333-34.133333H341.333333c-20.48 0-34.133333 13.653333-34.133333 34.133333s13.653333 34.133333 34.133333 34.133334zM341.333333 409.6h341.333334c20.48 0 34.133333-13.653333 34.133333-34.133333s-13.653333-34.133333-34.133333-34.133334H341.333333c-20.48 0-34.133333 13.653333-34.133333 34.133334s13.653333 34.133333 34.133333 34.133333z"  /></svg>