<?xml version="1.0" standalone="no"?><!DOCTYPE svg PUBLIC "-//W3C//DTD SVG 1.1//EN" "http://www.w3.org/Graphics/SVG/1.1/DTD/svg11.dtd"><svg class="icon" width="16px" height="16.00px" viewBox="0 0 1024 1024" version="1.1" xmlns="http://www.w3.org/2000/svg"><path fill="#000000" d="M409.6 853.333333H102.4c-37.546667 0-68.266667-30.72-68.266667-68.266666V170.666667c0-37.546667 30.72-68.266667 68.266667-68.266667h785.066667c37.546667 0 68.266667 30.72 68.266666 68.266667v204.8c0 20.48-13.653333 34.133333-34.133333 34.133333s-34.133333-13.653333-34.133333-34.133333V170.666667H102.4v614.4h307.2c20.48 0 34.133333 13.653333 34.133333 34.133333s-13.653333 34.133333-34.133333 34.133333z"  /><path fill="#000000" d="M716.8 921.6c-150.186667 0-273.066667-122.88-273.066667-273.066667s122.88-273.066667 273.066667-273.066666 273.066667 122.88 273.066667 273.066666-122.88 273.066667-273.066667 273.066667z m0-477.866667c-112.64 0-204.8 92.16-204.8 204.8s92.16 204.8 204.8 204.8 204.8-92.16 204.8-204.8-92.16-204.8-204.8-204.8zM409.6 341.333333H197.973333c-20.48 0-34.133333-13.653333-34.133333-34.133333s13.653333-34.133333 34.133333-34.133333H409.6c20.48 0 34.133333 13.653333 34.133333 34.133333s-13.653333 34.133333-34.133333 34.133333zM341.333333 477.866667H197.973333c-20.48 0-34.133333-13.653333-34.133333-34.133334s13.653333-34.133333 34.133333-34.133333H341.333333c20.48 0 34.133333 13.653333 34.133334 34.133333s-13.653333 34.133333-34.133334 34.133334zM341.333333 614.4H197.973333c-20.48 0-34.133333-13.653333-34.133333-34.133333s13.653333-34.133333 34.133333-34.133334H341.333333c20.48 0 34.133333 13.653333 34.133334 34.133334s-13.653333 34.133333-34.133334 34.133333z"  /><path fill="#000000" d="M689.493333 778.24c-17.066667 0-37.546667-6.826667-51.2-20.48l-81.92-81.92c-13.653333-13.653333-13.653333-34.133333 0-47.786667s34.133333-13.653333 47.786667 0l81.92 81.92h6.826667l136.533333-136.533333c13.653333-13.653333 34.133333-13.653333 47.786667 0s13.653333 34.133333 0 47.786667l-136.533334 136.533333c-13.653333 13.653333-30.72 20.48-51.2 20.48z"  /></svg>