<?xml version="1.0" standalone="no"?><!DOCTYPE svg PUBLIC "-//W3C//DTD SVG 1.1//EN" "http://www.w3.org/Graphics/SVG/1.1/DTD/svg11.dtd"><svg class="icon" width="16px" height="16.00px" viewBox="0 0 1024 1024" version="1.1" xmlns="http://www.w3.org/2000/svg"><path fill="#000000" d="M945.493333 215.04L764.586667 34.133333H443.733333c-37.546667 0-68.266667 30.72-68.266666 68.266667v34.133333c0 20.48 13.653333 34.133333 34.133333 34.133334s34.133333-13.653333 34.133333-34.133334V102.4h273.066667v136.533333c0 37.546667 30.72 68.266667 68.266667 68.266667h102.4v238.933333c0 20.48 13.653333 34.133333 34.133333 34.133334s34.133333-13.653333 34.133333-34.133334V225.28l-10.24-10.24zM785.066667 150.186667L873.813333 238.933333H785.066667V150.186667zM604.16 419.84L423.253333 238.933333H136.533333c-37.546667 0-68.266667 30.72-68.266666 68.266667v614.4c0 37.546667 30.72 68.266667 68.266666 68.266667h34.133334c20.48 0 34.133333-13.653333 34.133333-34.133334s-13.653333-34.133333-34.133333-34.133333H136.533333V307.2h238.933334v136.533333c0 37.546667 30.72 68.266667 68.266666 68.266667h102.4c0 20.48 13.653333 34.133333 34.133334 34.133333s34.133333-13.653333 34.133333-34.133333v-81.92l-10.24-10.24zM443.733333 354.986667l88.746667 88.746666H443.733333v-88.746666z"  /><path fill="#000000" d="M307.2 443.733333H204.8c-20.48 0-34.133333-13.653333-34.133333-34.133333s13.653333-34.133333 34.133333-34.133333h102.4c20.48 0 34.133333 13.653333 34.133333 34.133333s-13.653333 34.133333-34.133333 34.133333zM375.466667 580.266667H204.8c-20.48 0-34.133333-13.653333-34.133333-34.133334s13.653333-34.133333 34.133333-34.133333h170.666667c20.48 0 34.133333 13.653333 34.133333 34.133333s-13.653333 34.133333-34.133333 34.133334zM375.466667 716.8H204.8c-20.48 0-34.133333-13.653333-34.133333-34.133333s13.653333-34.133333 34.133333-34.133334h170.666667c20.48 0 34.133333 13.653333 34.133333 34.133334s-13.653333 34.133333-34.133333 34.133333zM887.466667 785.066667h-68.266667c-37.546667 0-68.266667 30.72-68.266667 68.266666h-102.4v-68.266666c37.546667 0 68.266667-30.72 68.266667-68.266667v-68.266667c0-37.546667-30.72-68.266667-68.266667-68.266666h-68.266666c-37.546667 0-68.266667 30.72-68.266667 68.266666v68.266667c0 37.546667 30.72 68.266667 68.266667 68.266667v68.266666h-102.4c0-37.546667-30.72-68.266667-68.266667-68.266666h-68.266667c-37.546667 0-68.266667 30.72-68.266666 68.266666v68.266667c0 37.546667 30.72 68.266667 68.266666 68.266667h68.266667c37.546667 0 68.266667-30.72 68.266667-68.266667h273.066666c0 37.546667 30.72 68.266667 68.266667 68.266667h68.266667c37.546667 0 68.266667-30.72 68.266666-68.266667v-68.266667c0-37.546667-30.72-68.266667-68.266666-68.266666z m-307.2-136.533334h68.266666v68.266667h-68.266666v-68.266667z m-238.933334 273.066667v-68.266667h68.266667v68.266667h-68.266667z m477.866667 0v-68.266667h68.266667v68.266667h-68.266667z"  /></svg>