<?xml version="1.0" standalone="no"?><!DOCTYPE svg PUBLIC "-//W3C//DTD SVG 1.1//EN" "http://www.w3.org/Graphics/SVG/1.1/DTD/svg11.dtd"><svg class="icon" width="16px" height="16.00px" viewBox="0 0 1024 1024" version="1.1" xmlns="http://www.w3.org/2000/svg"><path fill="#000000" d="M887.466667 273.066667H375.466667c-20.48 0-34.133333-13.653333-34.133334-34.133334s13.653333-34.133333 34.133334-34.133333h512c20.48 0 34.133333 13.653333 34.133333 34.133333s-13.653333 34.133333-34.133333 34.133334zM204.8 273.066667H136.533333c-20.48 0-34.133333-13.653333-34.133333-34.133334s13.653333-34.133333 34.133333-34.133333h68.266667c20.48 0 34.133333 13.653333 34.133333 34.133333s-13.653333 34.133333-34.133333 34.133334zM887.466667 546.133333H375.466667c-20.48 0-34.133333-13.653333-34.133334-34.133333s13.653333-34.133333 34.133334-34.133333h512c20.48 0 34.133333 13.653333 34.133333 34.133333s-13.653333 34.133333-34.133333 34.133333zM204.8 546.133333H136.533333c-20.48 0-34.133333-13.653333-34.133333-34.133333s13.653333-34.133333 34.133333-34.133333h68.266667c20.48 0 34.133333 13.653333 34.133333 34.133333s-13.653333 34.133333-34.133333 34.133333zM887.466667 819.2H375.466667c-20.48 0-34.133333-13.653333-34.133334-34.133333s13.653333-34.133333 34.133334-34.133334h512c20.48 0 34.133333 13.653333 34.133333 34.133334s-13.653333 34.133333-34.133333 34.133333zM204.8 819.2H136.533333c-20.48 0-34.133333-13.653333-34.133333-34.133333s13.653333-34.133333 34.133333-34.133334h68.266667c20.48 0 34.133333 13.653333 34.133333 34.133334s-13.653333 34.133333-34.133333 34.133333z" /></svg>