<?xml version="1.0" standalone="no"?><!DOCTYPE svg PUBLIC "-//W3C//DTD SVG 1.1//EN" "http://www.w3.org/Graphics/SVG/1.1/DTD/svg11.dtd"><svg class="icon" width="16px" height="16.00px" viewBox="0 0 1024 1024" version="1.1" xmlns="http://www.w3.org/2000/svg"><path fill="#000000" d="M341.333333 853.333333H102.4V170.666667h750.933333v136.533333c0 20.48 13.653333 34.133333 34.133334 34.133333s34.133333-13.653333 34.133333-34.133333V170.666667c0-37.546667-30.72-68.266667-68.266667-68.266667H102.4c-37.546667 0-68.266667 30.72-68.266667 68.266667v682.666666c0 37.546667 30.72 68.266667 68.266667 68.266667h238.933333c20.48 0 34.133333-13.653333 34.133334-34.133333s-13.653333-34.133333-34.133334-34.133334zM795.306667 621.226667c34.133333-23.893333 58.026667-64.853333 58.026666-109.226667 0-75.093333-61.44-136.533333-136.533333-136.533333s-136.533333 61.44-136.533333 136.533333c0 44.373333 23.893333 85.333333 58.026666 109.226667-139.946667 30.72-194.56 136.533333-194.56 232.106666 0 20.48 13.653333 34.133333 34.133334 34.133334s34.133333-13.653333 34.133333-34.133334c0-40.96 13.653333-170.666667 204.8-170.666666 95.573333 0 204.8 44.373333 204.8 170.666666 0 20.48 13.653333 34.133333 34.133333 34.133334s34.133333-13.653333 34.133334-34.133334c0-119.466667-75.093333-204.8-194.56-232.106666zM716.8 443.733333c37.546667 0 68.266667 30.72 68.266667 68.266667s-30.72 68.266667-68.266667 68.266667-68.266667-30.72-68.266667-68.266667 30.72-68.266667 68.266667-68.266667zM614.4 341.333333c0-20.48-13.653333-34.133333-34.133333-34.133333H238.933333c-20.48 0-34.133333 13.653333-34.133333 34.133333s13.653333 34.133333 34.133333 34.133334h341.333334c20.48 0 34.133333-13.653333 34.133333-34.133334zM238.933333 477.866667c-20.48 0-34.133333 13.653333-34.133333 34.133333s13.653333 34.133333 34.133333 34.133333h170.666667c20.48 0 34.133333-13.653333 34.133333-34.133333s-13.653333-34.133333-34.133333-34.133333H238.933333zM409.6 648.533333H238.933333c-20.48 0-34.133333 13.653333-34.133333 34.133334s13.653333 34.133333 34.133333 34.133333h170.666667c20.48 0 34.133333-13.653333 34.133333-34.133333s-13.653333-34.133333-34.133333-34.133334z" /></svg>