<?xml version="1.0" standalone="no"?><!DOCTYPE svg PUBLIC "-//W3C//DTD SVG 1.1//EN" "http://www.w3.org/Graphics/SVG/1.1/DTD/svg11.dtd"><svg class="icon" width="16px" height="16.00px" viewBox="0 0 1024 1024" version="1.1" xmlns="http://www.w3.org/2000/svg"><path fill="#000000" d="M819.2 409.6h-273.066667V307.2h68.266667c37.546667 0 68.266667-30.72 68.266667-68.266667V136.533333c0-37.546667-30.72-68.266667-68.266667-68.266666h-204.8c-37.546667 0-68.266667 30.72-68.266667 68.266666v102.4c0 37.546667 30.72 68.266667 68.266667 68.266667h68.266667v102.4H204.8c-37.546667 0-68.266667 30.72-68.266667 68.266667v102.4c0 20.48 13.653333 34.133333 34.133334 34.133333s34.133333-13.653333 34.133333-34.133333v-102.4h273.066667v102.4c0 20.48 13.653333 34.133333 34.133333 34.133333s34.133333-13.653333 34.133333-34.133333v-102.4h273.066667v102.4c0 20.48 13.653333 34.133333 34.133333 34.133333s34.133333-13.653333 34.133334-34.133333v-102.4c0-37.546667-30.72-68.266667-68.266667-68.266667zM409.6 238.933333V136.533333h204.8v102.4h-204.8zM170.666667 921.6c-75.093333 0-136.533333-61.44-136.533334-136.533333s61.44-136.533333 136.533334-136.533334 136.533333 61.44 136.533333 136.533334-61.44 136.533333-136.533333 136.533333z m0-204.8c-37.546667 0-68.266667 30.72-68.266667 68.266667s30.72 68.266667 68.266667 68.266666 68.266667-30.72 68.266666-68.266666-30.72-68.266667-68.266666-68.266667zM512 921.6c-75.093333 0-136.533333-61.44-136.533333-136.533333s61.44-136.533333 136.533333-136.533334 136.533333 61.44 136.533333 136.533334-61.44 136.533333-136.533333 136.533333z m0-204.8c-37.546667 0-68.266667 30.72-68.266667 68.266667s30.72 68.266667 68.266667 68.266666 68.266667-30.72 68.266667-68.266666-30.72-68.266667-68.266667-68.266667zM853.333333 921.6c-75.093333 0-136.533333-61.44-136.533333-136.533333s61.44-136.533333 136.533333-136.533334 136.533333 61.44 136.533334 136.533334-61.44 136.533333-136.533334 136.533333z m0-204.8c-37.546667 0-68.266667 30.72-68.266666 68.266667s30.72 68.266667 68.266666 68.266666 68.266667-30.72 68.266667-68.266666-30.72-68.266667-68.266667-68.266667z" /></svg>