<?xml version="1.0" standalone="no"?><!DOCTYPE svg PUBLIC "-//W3C//DTD SVG 1.1//EN" "http://www.w3.org/Graphics/SVG/1.1/DTD/svg11.dtd"><svg class="icon" width="16px" height="16.00px" viewBox="0 0 1024 1024" version="1.1" xmlns="http://www.w3.org/2000/svg"><path fill="#000000" d="M890.88 218.453333l-153.6-153.6c-17.066667-20.48-44.373333-30.72-71.68-30.72H204.8C146.773333 34.133333 102.4 78.506667 102.4 136.533333v750.933334c0 58.026667 44.373333 102.4 102.4 102.4h614.4c58.026667 0 102.4-44.373333 102.4-102.4V290.133333c0-27.306667-10.24-54.613333-30.72-71.68z m-47.786667 47.786667c3.413333 3.413333 3.413333 3.413333 3.413334 6.826667H682.666667V105.813333c3.413333 0 6.826667 3.413333 6.826666 3.413334l153.6 157.013333zM819.2 921.6H204.8c-17.066667 0-34.133333-13.653333-34.133333-34.133333V136.533333c0-20.48 13.653333-34.133333 34.133333-34.133333h409.6v170.666667c0 37.546667 30.72 68.266667 68.266667 68.266666h170.666666v546.133334c0 20.48-13.653333 34.133333-34.133333 34.133333z" /></svg>