<?xml version="1.0" standalone="no"?><!DOCTYPE svg PUBLIC "-//W3C//DTD SVG 1.1//EN" "http://www.w3.org/Graphics/SVG/1.1/DTD/svg11.dtd"><svg class="icon" width="16px" height="16.00px" viewBox="0 0 1024 1024" version="1.1" xmlns="http://www.w3.org/2000/svg"><path fill="#000000" d="M935.253333 211.626667l-119.466666-119.466667c-13.653333-13.653333-30.72-20.48-47.786667-20.48-17.066667 0-34.133333 6.826667-47.786667 20.48L177.493333 631.466667c-3.413333 6.826667-6.826667 10.24-10.24 17.066666l-61.44 232.106667c-3.413333 10.24 0 23.893333 10.24 34.133333 6.826667 3.413333 13.653333 6.826667 23.893334 6.826667h10.24l232.106666-61.44c6.826667 0 10.24-3.413333 13.653334-10.24L935.253333 307.2c27.306667-27.306667 27.306667-68.266667 0-95.573333zM273.066667 631.466667L634.88 273.066667l119.466667 119.466666L395.946667 750.933333 273.066667 631.466667zM228.693333 682.666667l112.64 112.64-157.013333 40.96L228.693333 682.666667z m573.44-337.92L682.666667 225.28l85.333333-85.333333L887.466667 259.413333l-85.333334 85.333334zM416.426667 136.533333c-68.266667-68.266667-174.08-64.853333-242.346667 0L78.506667 232.106667c-13.653333 13.653333-13.653333 34.133333 0 47.786666l81.92 81.92L242.346667 443.733333l10.24 10.24c6.826667 6.826667 17.066667 10.24 23.893333 10.24s17.066667-3.413333 23.893333-10.24c6.826667-6.826667 10.24-17.066667 10.24-27.306666l78.506667-78.506667c13.653333-13.653333 13.653333-34.133333 0-47.786667-13.653333-13.653333-34.133333-13.653333-47.786667 0L269.653333 375.466667l-34.133333-34.133334L307.2 266.24c13.653333-13.653333 13.653333-34.133333 0-47.786667-13.653333-13.653333-37.546667-13.653333-47.786667 0L184.32 290.133333l-34.133333-34.133333 71.68-71.68c40.96-40.96 105.813333-40.96 143.36 0l68.266666 68.266667c13.653333 13.653333 34.133333 13.653333 47.786667 0 13.653333-13.653333 13.653333-34.133333 0-47.786667l-64.853333-68.266667zM877.226667 597.333333L826.026667 546.133333c-13.653333-13.653333-34.133333-13.653333-47.786667 0-13.653333 13.653333-13.653333 34.133333 0 47.786667l51.2 51.2c20.48 20.48 30.72 44.373333 30.72 71.68s-10.24 54.613333-30.72 71.68l-71.68 71.68-23.893333-23.893333 71.68-71.68c13.653333-13.653333 13.653333-34.133333 0-47.786667-13.653333-13.653333-34.133333-13.653333-47.786667 0l-71.68 71.68-37.546667-34.133333 71.68-71.68c13.653333-13.653333 13.653333-34.133333 0-47.786667-13.653333-13.653333-34.133333-13.653333-47.786666 0l-95.573334 95.573333c-13.653333 13.653333-13.653333 34.133333 0 47.786667l157.013334 157.013333c6.826667 6.826667 17.066667 10.24 23.893333 10.24s17.066667-3.413333 23.893333-10.24l95.573334-95.573333c30.72-30.72 51.2-75.093333 51.2-119.466667 0-47.786667-17.066667-92.16-51.2-122.88z" /></svg>