<?xml version="1.0" standalone="no"?><!DOCTYPE svg PUBLIC "-//W3C//DTD SVG 1.1//EN" "http://www.w3.org/Graphics/SVG/1.1/DTD/svg11.dtd"><svg class="icon" width="16px" height="16.00px" viewBox="0 0 1024 1024" version="1.1" xmlns="http://www.w3.org/2000/svg"><path fill="#000000" d="M819.2 989.866667H170.666667c-37.546667 0-68.266667-30.72-68.266667-68.266667V102.4c0-37.546667 30.72-68.266667 68.266667-68.266667h648.533333c37.546667 0 68.266667 30.72 68.266667 68.266667v819.2c0 37.546667-30.72 68.266667-68.266667 68.266667zM170.666667 102.4v819.2h648.533333V102.4H170.666667z"  /><path fill="#000000" d="M648.533333 341.333333h-307.2c-20.48 0-34.133333-13.653333-34.133333-34.133333s13.653333-34.133333 34.133333-34.133333h307.2c20.48 0 34.133333 13.653333 34.133334 34.133333s-13.653333 34.133333-34.133334 34.133333zM648.533333 546.133333h-307.2c-20.48 0-34.133333-13.653333-34.133333-34.133333s13.653333-34.133333 34.133333-34.133333h307.2c20.48 0 34.133333 13.653333 34.133334 34.133333s-13.653333 34.133333-34.133334 34.133333zM648.533333 750.933333h-307.2c-20.48 0-34.133333-13.653333-34.133333-34.133333s13.653333-34.133333 34.133333-34.133333h307.2c20.48 0 34.133333 13.653333 34.133334 34.133333s-13.653333 34.133333-34.133334 34.133333z"  /></svg>